<svg width="81" height="44" viewBox="0 0 81 44" fill="none" xmlns="http://www.w3.org/2000/svg">
<path d="M6.64706 43.9934C5.08351 43.9934 3.97256 43.4366 3.25251 42.8866C-0.162623 40.262 -0.0597573 33.8663 0.0293927 28.2262C0.043108 27.4707 0.0499657 26.7416 0.0568234 26.059C0.0568234 24.972 0.893461 23.9911 2.01812 23.9447C3.19765 23.8917 4.17144 24.7997 4.17144 25.933C4.17144 26.6687 4.15772 27.464 4.14401 28.2925C4.08229 32.0636 3.97942 38.3731 5.81043 39.7782C5.95444 39.8909 6.33847 40.1825 7.44256 39.9174C9.25299 39.4799 9.91818 32.5673 10.3159 28.4383C11.0771 20.5315 11.8589 12.353 18.168 12.353C18.1954 12.353 18.2228 12.353 18.2571 12.353C23.709 12.4193 24.189 17.7612 24.5113 21.2937C24.7651 24.1171 25.0325 26.1252 26.1092 26.2976C28.0842 26.6091 29.8261 19.8157 30.985 15.3222C32.9669 7.6076 35.2093 -1.12101 41.9299 0.118357C48.1087 1.25831 49.8917 11.5245 51.7775 22.3939C52.5593 26.9139 53.3068 31.1821 54.308 34.3038C55.3367 37.4983 56.2693 38.1942 56.5436 38.1942C58.4226 38.1279 58.5461 31.6593 58.6215 27.3845C58.7587 19.9748 58.9164 11.5709 64.9306 9.78809C65.1089 9.73507 65.3009 9.70856 65.486 9.70193C71.2122 9.55613 72.3712 15.3487 73.1186 19.1795C73.537 21.3335 74.0719 24.011 74.9977 23.958C77.0275 23.7857 76.9041 17.5292 76.8629 15.468C76.8561 15.0438 76.8492 14.666 76.8492 14.3413C76.8492 13.1085 78.0082 12.1409 79.3317 12.3928C80.2986 12.5783 80.957 13.4598 80.9638 14.4208C80.9638 14.7058 80.9707 15.0306 80.9776 15.3951C81.0599 19.2988 81.2176 27.4176 75.3131 27.928C70.7047 28.2262 69.7584 23.4278 69.0726 19.9284C68.2497 15.7132 67.5982 13.8376 65.8769 13.6984C62.9693 14.951 62.839 21.8769 62.7361 27.4707C62.6058 34.602 62.4687 41.9786 56.6945 42.184C56.6328 42.184 56.5642 42.184 56.5025 42.184C51.03 42.184 49.5625 33.7338 47.7109 23.0633C46.4354 15.7331 44.5084 4.65829 41.1481 4.0353C38.2267 3.49846 36.43 10.59 34.9625 16.2832C33.1863 23.1759 31.3553 30.294 26.3423 30.294C26.0475 30.294 25.7457 30.2675 25.4303 30.2211C21.1099 29.5385 20.6985 24.972 20.3967 21.6383C20.0127 17.39 19.5807 16.3495 18.1886 16.3296H18.1748C15.5963 16.3296 14.9037 23.5405 14.4031 28.8028C13.7173 35.9275 13.0727 42.6546 8.43006 43.7747C7.77172 43.9337 7.17511 44 6.63335 44L6.64706 43.9934Z" fill="white"/>
</svg>
